<?xml version="1.0" encoding="UTF-8"?>
<svg id="Layer_2" data-name="Layer 2" xmlns="http://www.w3.org/2000/svg" viewBox="0 0 27.95 23.75">
  <defs>
    <style>
      .cls-1 {
        fill: #fff;
      }

      .cls-2 {
        fill: #b1a2cf;
      }

      .cls-3 {
        fill: #1a1618;
      }
    </style>
  </defs>
  <g id="Layer_1-2" data-name="Layer 1">
    <g>
      <g>
        <path class="cls-1" d="M21.19,13.51c-3.73,0-6.76-3.03-6.76-6.76S17.46,0,21.19,0s6.76,3.03,6.76,6.76-3.03,6.76-6.76,6.76Zm0-12.26c-3.04,0-5.51,2.47-5.51,5.51s2.47,5.51,5.51,5.51,5.51-2.47,5.51-5.51-2.47-5.51-5.51-5.51Z"/>
        <rect class="cls-1" x="20.56" y=".62" width="1.25" height="12.26"/>
        <rect class="cls-1" x="15.06" y="6.13" width="12.26" height="1.25"/>
        <rect class="cls-1" x="15.06" y="6.13" width="12.26" height="1.25" transform="translate(1.43 16.96) rotate(-45)"/>
        <rect class="cls-1" x="20.56" y=".63" width="1.25" height="12.26" transform="translate(1.43 16.96) rotate(-45)"/>
      </g>
      <g>
        <polygon class="cls-2" points="3.03 21.87 1.93 7.79 20.36 7.79 19.25 21.87 3.03 21.87"/>
        <path class="cls-3" d="M19,9.04l-.91,11.58H4.18l-.91-11.58h15.73m2.03-2.5H1.25c-.36,0-.65,.31-.62,.67l1.2,15.33c.03,.33,.3,.58,.62,.58H19.83c.33,0,.6-.25,.62-.58l1.2-15.33c.03-.36-.26-.67-.62-.67h0Z"/>
      </g>
      <path class="cls-1" d="M19.83,23.75H2.45c-.65,0-1.19-.51-1.25-1.15L0,7.27c-.03-.35,.09-.69,.33-.95,.24-.26,.57-.4,.92-.4H21.03c.35,0,.68,.15,.92,.4,.24,.25,.36,.6,.33,.95l-1.2,15.33c-.05,.65-.6,1.15-1.25,1.15ZM1.29,7.72l1.16,14.78H19.83l1.16-14.78c.02-.3-.21-.55-.51-.55H1.81c-.3,0-.53,.25-.51,.55Z"/>
      <path class="cls-1" d="M7.24,23.75H2.5c-.66,0-1.21-.52-1.25-1.18l-.18-3.15c0-.94,.39-1.8,1.09-2.38,.69-.59,1.6-.84,2.51-.69,1.47,.24,2.57,1.6,2.57,3.17v4.23Zm-3.09-6.2c-.44,0-.85,.15-1.18,.44-.41,.35-.65,.86-.65,1.4l.15,2.63c.02,.27,.24,.49,.52,.49h3s0-2.98,0-2.98c0-.96-.65-1.8-1.52-1.94-.11-.02-.21-.03-.31-.03Z"/>
      <path class="cls-1" d="M14.22,23.75h-6.17v-4.34c0-1.7,1.38-3.08,3.08-3.08s3.08,1.38,3.08,3.08v4.34Zm-4.92-1.25h3.67v-3.09c0-1.01-.82-1.83-1.83-1.83s-1.83,.82-1.83,1.83v3.09Z"/>
      <path class="cls-1" d="M19.8,23.75h-4.71v-4.21c0-1.57,1.1-2.93,2.57-3.17,.91-.15,1.82,.1,2.51,.69,.69,.59,1.09,1.44,1.09,2.35l-.21,3.17c-.04,.66-.59,1.17-1.25,1.17Zm0-1.25v0h0Zm-3.46,0h2.92c.31,0,.56-.24,.58-.54l.17-2.59c0-.5-.24-1.01-.65-1.36-.42-.35-.94-.5-1.5-.41-.87,.14-1.52,.97-1.52,1.94v2.96Z"/>
      <circle class="cls-1" cx="12.82" cy="11.85" r=".95"/>
      <circle class="cls-1" cx="15.11" cy="14.28" r=".95"/>
    </g>
  </g>
</svg>